<mxfile host="app.diagrams.net" modified="2023-09-22T15:57:17.163Z" agent="Mozilla/5.0 (Windows NT 10.0; Win64; x64) AppleWebKit/537.36 (KHTML, like Gecko) Chrome/117.0.0.0 Safari/537.36 Edg/117.0.2045.36" etag="Z2MLJhcAcqLKXy3X8hfA" version="21.8.0" type="github">
  <diagram id="dI9wAQy3VfSPn7DYQMEc" name="第 1 页">
    <mxGraphModel dx="776" dy="569" grid="1" gridSize="10" guides="1" tooltips="1" connect="1" arrows="1" fold="1" page="1" pageScale="1" pageWidth="827" pageHeight="1169" math="0" shadow="0">
      <root>
        <mxCell id="0" />
        <mxCell id="1" parent="0" />
        <object label="" id="41apcGKAr85ElvL8D0TB-105">
          <mxCell style="shape=table;html=1;whiteSpace=wrap;startSize=0;container=1;collapsible=0;childLayout=tableLayout;labelBackgroundColor=none;labelBorderColor=none;fontColor=#FFFFFF;strokeColor=#000000;fillColor=#FFFFFF;" parent="1" vertex="1">
            <mxGeometry x="320" y="280" width="300" height="80" as="geometry" />
          </mxCell>
        </object>
        <mxCell id="41apcGKAr85ElvL8D0TB-106" value="" style="shape=tableRow;horizontal=0;startSize=0;swimlaneHead=0;swimlaneBody=0;top=0;left=0;bottom=0;right=0;collapsible=0;dropTarget=0;fillColor=none;points=[[0,0.5],[1,0.5]];portConstraint=eastwest;labelBackgroundColor=none;labelBorderColor=none;fontColor=#FFFFFF;strokeColor=#FFFFFF;" parent="41apcGKAr85ElvL8D0TB-105" vertex="1">
          <mxGeometry width="300" height="40" as="geometry" />
        </mxCell>
        <mxCell id="41apcGKAr85ElvL8D0TB-107" value="" style="shape=partialRectangle;html=1;whiteSpace=wrap;connectable=0;fillColor=none;top=0;left=0;bottom=0;right=0;overflow=hidden;labelBackgroundColor=none;labelBorderColor=none;fontColor=#000000;strokeColor=#FFFFFF;" parent="41apcGKAr85ElvL8D0TB-106" vertex="1">
          <mxGeometry width="60" height="40" as="geometry">
            <mxRectangle width="60" height="40" as="alternateBounds" />
          </mxGeometry>
        </mxCell>
        <mxCell id="41apcGKAr85ElvL8D0TB-108" value="" style="shape=partialRectangle;html=1;whiteSpace=wrap;connectable=0;fillColor=none;top=0;left=0;bottom=0;right=0;overflow=hidden;labelBackgroundColor=none;labelBorderColor=none;fontColor=#000000;strokeColor=#FFFFFF;" parent="41apcGKAr85ElvL8D0TB-106" vertex="1">
          <mxGeometry x="60" width="60" height="40" as="geometry">
            <mxRectangle width="60" height="40" as="alternateBounds" />
          </mxGeometry>
        </mxCell>
        <mxCell id="41apcGKAr85ElvL8D0TB-109" value="" style="shape=partialRectangle;html=1;whiteSpace=wrap;connectable=0;fillColor=none;top=0;left=0;bottom=0;right=0;overflow=hidden;labelBackgroundColor=none;labelBorderColor=none;fontColor=#000000;strokeColor=#FFFFFF;" parent="41apcGKAr85ElvL8D0TB-106" vertex="1">
          <mxGeometry x="120" width="60" height="40" as="geometry">
            <mxRectangle width="60" height="40" as="alternateBounds" />
          </mxGeometry>
        </mxCell>
        <mxCell id="41apcGKAr85ElvL8D0TB-119" style="shape=partialRectangle;html=1;whiteSpace=wrap;connectable=0;fillColor=none;top=0;left=0;bottom=0;right=0;overflow=hidden;labelBackgroundColor=none;labelBorderColor=none;fontColor=#000000;strokeColor=#FFFFFF;" parent="41apcGKAr85ElvL8D0TB-106" vertex="1">
          <mxGeometry x="180" width="60" height="40" as="geometry">
            <mxRectangle width="60" height="40" as="alternateBounds" />
          </mxGeometry>
        </mxCell>
        <mxCell id="41apcGKAr85ElvL8D0TB-118" style="shape=partialRectangle;html=1;whiteSpace=wrap;connectable=0;fillColor=none;top=0;left=0;bottom=0;right=0;overflow=hidden;labelBackgroundColor=none;labelBorderColor=none;fontColor=#000000;strokeColor=#FFFFFF;" parent="41apcGKAr85ElvL8D0TB-106" vertex="1">
          <mxGeometry x="240" width="60" height="40" as="geometry">
            <mxRectangle width="60" height="40" as="alternateBounds" />
          </mxGeometry>
        </mxCell>
        <mxCell id="41apcGKAr85ElvL8D0TB-137" style="shape=tableRow;horizontal=0;startSize=0;swimlaneHead=0;swimlaneBody=0;top=0;left=0;bottom=0;right=0;collapsible=0;dropTarget=0;fillColor=none;points=[[0,0.5],[1,0.5]];portConstraint=eastwest;labelBackgroundColor=none;labelBorderColor=none;fontColor=#FFFFFF;strokeColor=#FFFFFF;" parent="41apcGKAr85ElvL8D0TB-105" vertex="1">
          <mxGeometry y="40" width="300" height="40" as="geometry" />
        </mxCell>
        <mxCell id="41apcGKAr85ElvL8D0TB-138" value="0" style="shape=partialRectangle;html=1;whiteSpace=wrap;connectable=0;fillColor=none;top=0;left=0;bottom=0;right=0;overflow=hidden;labelBackgroundColor=none;labelBorderColor=none;fontColor=#000000;strokeColor=#FFFFFF;" parent="41apcGKAr85ElvL8D0TB-137" vertex="1">
          <mxGeometry width="60" height="40" as="geometry">
            <mxRectangle width="60" height="40" as="alternateBounds" />
          </mxGeometry>
        </mxCell>
        <mxCell id="41apcGKAr85ElvL8D0TB-139" value="1" style="shape=partialRectangle;html=1;whiteSpace=wrap;connectable=0;fillColor=none;top=0;left=0;bottom=0;right=0;overflow=hidden;labelBackgroundColor=none;labelBorderColor=none;fontColor=#000000;strokeColor=#FFFFFF;" parent="41apcGKAr85ElvL8D0TB-137" vertex="1">
          <mxGeometry x="60" width="60" height="40" as="geometry">
            <mxRectangle width="60" height="40" as="alternateBounds" />
          </mxGeometry>
        </mxCell>
        <mxCell id="41apcGKAr85ElvL8D0TB-140" value="2" style="shape=partialRectangle;html=1;whiteSpace=wrap;connectable=0;fillColor=none;top=0;left=0;bottom=0;right=0;overflow=hidden;labelBackgroundColor=none;labelBorderColor=none;fontColor=#000000;strokeColor=#FFFFFF;" parent="41apcGKAr85ElvL8D0TB-137" vertex="1">
          <mxGeometry x="120" width="60" height="40" as="geometry">
            <mxRectangle width="60" height="40" as="alternateBounds" />
          </mxGeometry>
        </mxCell>
        <mxCell id="41apcGKAr85ElvL8D0TB-141" value="3" style="shape=partialRectangle;html=1;whiteSpace=wrap;connectable=0;fillColor=none;top=0;left=0;bottom=0;right=0;overflow=hidden;labelBackgroundColor=none;labelBorderColor=none;fontColor=#000000;strokeColor=#FFFFFF;" parent="41apcGKAr85ElvL8D0TB-137" vertex="1">
          <mxGeometry x="180" width="60" height="40" as="geometry">
            <mxRectangle width="60" height="40" as="alternateBounds" />
          </mxGeometry>
        </mxCell>
        <mxCell id="41apcGKAr85ElvL8D0TB-142" value="4" style="shape=partialRectangle;html=1;whiteSpace=wrap;connectable=0;fillColor=none;top=0;left=0;bottom=0;right=0;overflow=hidden;labelBackgroundColor=none;labelBorderColor=none;fontColor=#000000;strokeColor=#FFFFFF;" parent="41apcGKAr85ElvL8D0TB-137" vertex="1">
          <mxGeometry x="240" width="60" height="40" as="geometry">
            <mxRectangle width="60" height="40" as="alternateBounds" />
          </mxGeometry>
        </mxCell>
        <mxCell id="41apcGKAr85ElvL8D0TB-120" value="rear" style="text;html=1;strokeColor=none;fillColor=none;align=center;verticalAlign=middle;whiteSpace=wrap;rounded=0;labelBackgroundColor=none;labelBorderColor=none;fontColor=#000000;" parent="1" vertex="1">
          <mxGeometry x="290" y="400" width="60" height="30" as="geometry" />
        </mxCell>
        <mxCell id="41apcGKAr85ElvL8D0TB-121" value="front" style="text;html=1;strokeColor=none;fillColor=none;align=center;verticalAlign=middle;whiteSpace=wrap;rounded=0;labelBackgroundColor=none;labelBorderColor=none;fontColor=#000000;" parent="1" vertex="1">
          <mxGeometry x="230" y="400" width="60" height="30" as="geometry" />
        </mxCell>
        <mxCell id="41apcGKAr85ElvL8D0TB-123" value="" style="endArrow=classic;html=1;rounded=0;fontColor=#000000;exitX=0.5;exitY=0;exitDx=0;exitDy=0;" parent="1" source="41apcGKAr85ElvL8D0TB-121" edge="1">
          <mxGeometry width="50" height="50" relative="1" as="geometry">
            <mxPoint x="440" y="670" as="sourcePoint" />
            <mxPoint x="290" y="360" as="targetPoint" />
          </mxGeometry>
        </mxCell>
        <mxCell id="41apcGKAr85ElvL8D0TB-124" value="" style="endArrow=classic;html=1;rounded=0;fontColor=#000000;exitX=0.5;exitY=0;exitDx=0;exitDy=0;entryX=0.511;entryY=0.992;entryDx=0;entryDy=0;entryPerimeter=0;" parent="1" source="41apcGKAr85ElvL8D0TB-120" target="41apcGKAr85ElvL8D0TB-144" edge="1">
          <mxGeometry width="50" height="50" relative="1" as="geometry">
            <mxPoint x="440" y="670" as="sourcePoint" />
            <mxPoint x="220" y="350" as="targetPoint" />
          </mxGeometry>
        </mxCell>
        <object label="" id="41apcGKAr85ElvL8D0TB-143">
          <mxCell style="shape=table;html=1;whiteSpace=wrap;startSize=0;container=1;collapsible=0;childLayout=tableLayout;labelBackgroundColor=none;labelBorderColor=none;fontColor=#FFFFFF;strokeColor=#000000;fillColor=#FFFFFF;" parent="1" vertex="1">
            <mxGeometry x="260" y="320" width="60" height="40" as="geometry" />
          </mxCell>
        </object>
        <mxCell id="41apcGKAr85ElvL8D0TB-144" value="" style="shape=tableRow;horizontal=0;startSize=0;swimlaneHead=0;swimlaneBody=0;top=0;left=0;bottom=0;right=0;collapsible=0;dropTarget=0;fillColor=none;points=[[0,0.5],[1,0.5]];portConstraint=eastwest;labelBackgroundColor=none;labelBorderColor=none;fontColor=#FFFFFF;strokeColor=#FFFFFF;" parent="41apcGKAr85ElvL8D0TB-143" vertex="1">
          <mxGeometry width="60" height="40" as="geometry" />
        </mxCell>
        <mxCell id="41apcGKAr85ElvL8D0TB-145" value="-1" style="shape=partialRectangle;html=1;whiteSpace=wrap;connectable=0;fillColor=none;top=0;left=0;bottom=0;right=0;overflow=hidden;labelBackgroundColor=none;labelBorderColor=none;fontColor=#000000;strokeColor=#FFFFFF;" parent="41apcGKAr85ElvL8D0TB-144" vertex="1">
          <mxGeometry width="60" height="40" as="geometry">
            <mxRectangle width="60" height="40" as="alternateBounds" />
          </mxGeometry>
        </mxCell>
        <mxCell id="41apcGKAr85ElvL8D0TB-157" value="空队列&lt;br&gt;front、rear都指向-1" style="text;html=1;align=center;verticalAlign=middle;resizable=0;points=[];autosize=1;strokeColor=none;fillColor=none;fontColor=#000000;" parent="1" vertex="1">
          <mxGeometry x="80" y="300" width="120" height="30" as="geometry" />
        </mxCell>
        <object label="" id="41apcGKAr85ElvL8D0TB-158">
          <mxCell style="shape=table;html=1;whiteSpace=wrap;startSize=0;container=1;collapsible=0;childLayout=tableLayout;labelBackgroundColor=none;labelBorderColor=none;fontColor=#FFFFFF;strokeColor=#000000;fillColor=#FFFFFF;" parent="1" vertex="1">
            <mxGeometry x="320" y="500" width="300" height="80" as="geometry" />
          </mxCell>
        </object>
        <mxCell id="41apcGKAr85ElvL8D0TB-159" value="" style="shape=tableRow;horizontal=0;startSize=0;swimlaneHead=0;swimlaneBody=0;top=0;left=0;bottom=0;right=0;collapsible=0;dropTarget=0;fillColor=none;points=[[0,0.5],[1,0.5]];portConstraint=eastwest;labelBackgroundColor=none;labelBorderColor=none;fontColor=#FFFFFF;strokeColor=#FFFFFF;" parent="41apcGKAr85ElvL8D0TB-158" vertex="1">
          <mxGeometry width="300" height="40" as="geometry" />
        </mxCell>
        <mxCell id="41apcGKAr85ElvL8D0TB-160" value="data1" style="shape=partialRectangle;html=1;whiteSpace=wrap;connectable=0;fillColor=#66FFB3;top=0;left=0;bottom=0;right=0;overflow=hidden;labelBackgroundColor=none;labelBorderColor=none;fontColor=#000000;strokeColor=#FFFFFF;" parent="41apcGKAr85ElvL8D0TB-159" vertex="1">
          <mxGeometry width="60" height="40" as="geometry">
            <mxRectangle width="60" height="40" as="alternateBounds" />
          </mxGeometry>
        </mxCell>
        <mxCell id="41apcGKAr85ElvL8D0TB-161" value="" style="shape=partialRectangle;html=1;whiteSpace=wrap;connectable=0;fillColor=none;top=0;left=0;bottom=0;right=0;overflow=hidden;labelBackgroundColor=none;labelBorderColor=none;fontColor=#000000;strokeColor=#FFFFFF;" parent="41apcGKAr85ElvL8D0TB-159" vertex="1">
          <mxGeometry x="60" width="60" height="40" as="geometry">
            <mxRectangle width="60" height="40" as="alternateBounds" />
          </mxGeometry>
        </mxCell>
        <mxCell id="41apcGKAr85ElvL8D0TB-162" value="" style="shape=partialRectangle;html=1;whiteSpace=wrap;connectable=0;fillColor=none;top=0;left=0;bottom=0;right=0;overflow=hidden;labelBackgroundColor=none;labelBorderColor=none;fontColor=#000000;strokeColor=#FFFFFF;" parent="41apcGKAr85ElvL8D0TB-159" vertex="1">
          <mxGeometry x="120" width="60" height="40" as="geometry">
            <mxRectangle width="60" height="40" as="alternateBounds" />
          </mxGeometry>
        </mxCell>
        <mxCell id="41apcGKAr85ElvL8D0TB-163" style="shape=partialRectangle;html=1;whiteSpace=wrap;connectable=0;fillColor=none;top=0;left=0;bottom=0;right=0;overflow=hidden;labelBackgroundColor=none;labelBorderColor=none;fontColor=#000000;strokeColor=#FFFFFF;" parent="41apcGKAr85ElvL8D0TB-159" vertex="1">
          <mxGeometry x="180" width="60" height="40" as="geometry">
            <mxRectangle width="60" height="40" as="alternateBounds" />
          </mxGeometry>
        </mxCell>
        <mxCell id="41apcGKAr85ElvL8D0TB-164" style="shape=partialRectangle;html=1;whiteSpace=wrap;connectable=0;fillColor=none;top=0;left=0;bottom=0;right=0;overflow=hidden;labelBackgroundColor=none;labelBorderColor=none;fontColor=#000000;strokeColor=#FFFFFF;" parent="41apcGKAr85ElvL8D0TB-159" vertex="1">
          <mxGeometry x="240" width="60" height="40" as="geometry">
            <mxRectangle width="60" height="40" as="alternateBounds" />
          </mxGeometry>
        </mxCell>
        <mxCell id="41apcGKAr85ElvL8D0TB-165" style="shape=tableRow;horizontal=0;startSize=0;swimlaneHead=0;swimlaneBody=0;top=0;left=0;bottom=0;right=0;collapsible=0;dropTarget=0;fillColor=none;points=[[0,0.5],[1,0.5]];portConstraint=eastwest;labelBackgroundColor=none;labelBorderColor=none;fontColor=#FFFFFF;strokeColor=#FFFFFF;" parent="41apcGKAr85ElvL8D0TB-158" vertex="1">
          <mxGeometry y="40" width="300" height="40" as="geometry" />
        </mxCell>
        <mxCell id="41apcGKAr85ElvL8D0TB-166" value="0" style="shape=partialRectangle;html=1;whiteSpace=wrap;connectable=0;fillColor=none;top=0;left=0;bottom=0;right=0;overflow=hidden;labelBackgroundColor=none;labelBorderColor=none;fontColor=#000000;strokeColor=#FFFFFF;" parent="41apcGKAr85ElvL8D0TB-165" vertex="1">
          <mxGeometry width="60" height="40" as="geometry">
            <mxRectangle width="60" height="40" as="alternateBounds" />
          </mxGeometry>
        </mxCell>
        <mxCell id="41apcGKAr85ElvL8D0TB-167" value="1" style="shape=partialRectangle;html=1;whiteSpace=wrap;connectable=0;fillColor=none;top=0;left=0;bottom=0;right=0;overflow=hidden;labelBackgroundColor=none;labelBorderColor=none;fontColor=#000000;strokeColor=#FFFFFF;" parent="41apcGKAr85ElvL8D0TB-165" vertex="1">
          <mxGeometry x="60" width="60" height="40" as="geometry">
            <mxRectangle width="60" height="40" as="alternateBounds" />
          </mxGeometry>
        </mxCell>
        <mxCell id="41apcGKAr85ElvL8D0TB-168" value="2" style="shape=partialRectangle;html=1;whiteSpace=wrap;connectable=0;fillColor=none;top=0;left=0;bottom=0;right=0;overflow=hidden;labelBackgroundColor=none;labelBorderColor=none;fontColor=#000000;strokeColor=#FFFFFF;" parent="41apcGKAr85ElvL8D0TB-165" vertex="1">
          <mxGeometry x="120" width="60" height="40" as="geometry">
            <mxRectangle width="60" height="40" as="alternateBounds" />
          </mxGeometry>
        </mxCell>
        <mxCell id="41apcGKAr85ElvL8D0TB-169" value="3" style="shape=partialRectangle;html=1;whiteSpace=wrap;connectable=0;fillColor=none;top=0;left=0;bottom=0;right=0;overflow=hidden;labelBackgroundColor=none;labelBorderColor=none;fontColor=#000000;strokeColor=#FFFFFF;" parent="41apcGKAr85ElvL8D0TB-165" vertex="1">
          <mxGeometry x="180" width="60" height="40" as="geometry">
            <mxRectangle width="60" height="40" as="alternateBounds" />
          </mxGeometry>
        </mxCell>
        <mxCell id="41apcGKAr85ElvL8D0TB-170" value="4" style="shape=partialRectangle;html=1;whiteSpace=wrap;connectable=0;fillColor=none;top=0;left=0;bottom=0;right=0;overflow=hidden;labelBackgroundColor=none;labelBorderColor=none;fontColor=#000000;strokeColor=#FFFFFF;" parent="41apcGKAr85ElvL8D0TB-165" vertex="1">
          <mxGeometry x="240" width="60" height="40" as="geometry">
            <mxRectangle width="60" height="40" as="alternateBounds" />
          </mxGeometry>
        </mxCell>
        <mxCell id="41apcGKAr85ElvL8D0TB-171" value="rear" style="text;html=1;strokeColor=none;fillColor=none;align=center;verticalAlign=middle;whiteSpace=wrap;rounded=0;labelBackgroundColor=none;labelBorderColor=none;fontColor=#000000;" parent="1" vertex="1">
          <mxGeometry x="320" y="620" width="60" height="30" as="geometry" />
        </mxCell>
        <mxCell id="41apcGKAr85ElvL8D0TB-172" value="front" style="text;html=1;strokeColor=none;fillColor=none;align=center;verticalAlign=middle;whiteSpace=wrap;rounded=0;labelBackgroundColor=none;labelBorderColor=none;fontColor=#000000;" parent="1" vertex="1">
          <mxGeometry x="260" y="620" width="60" height="30" as="geometry" />
        </mxCell>
        <mxCell id="41apcGKAr85ElvL8D0TB-173" value="" style="endArrow=classic;html=1;rounded=0;fontColor=#000000;exitX=0.5;exitY=0;exitDx=0;exitDy=0;" parent="1" source="41apcGKAr85ElvL8D0TB-172" edge="1">
          <mxGeometry width="50" height="50" relative="1" as="geometry">
            <mxPoint x="440" y="890" as="sourcePoint" />
            <mxPoint x="290" y="580" as="targetPoint" />
          </mxGeometry>
        </mxCell>
        <mxCell id="41apcGKAr85ElvL8D0TB-174" value="" style="endArrow=classic;html=1;rounded=0;fontColor=#000000;exitX=0.5;exitY=0;exitDx=0;exitDy=0;" parent="1" source="41apcGKAr85ElvL8D0TB-171" edge="1">
          <mxGeometry width="50" height="50" relative="1" as="geometry">
            <mxPoint x="440" y="890" as="sourcePoint" />
            <mxPoint x="350" y="580" as="targetPoint" />
          </mxGeometry>
        </mxCell>
        <object label="" id="41apcGKAr85ElvL8D0TB-175">
          <mxCell style="shape=table;html=1;whiteSpace=wrap;startSize=0;container=1;collapsible=0;childLayout=tableLayout;labelBackgroundColor=none;labelBorderColor=none;fontColor=#FFFFFF;strokeColor=#000000;fillColor=#FFFFFF;" parent="1" vertex="1">
            <mxGeometry x="260" y="540" width="60" height="40" as="geometry" />
          </mxCell>
        </object>
        <mxCell id="41apcGKAr85ElvL8D0TB-176" value="" style="shape=tableRow;horizontal=0;startSize=0;swimlaneHead=0;swimlaneBody=0;top=0;left=0;bottom=0;right=0;collapsible=0;dropTarget=0;fillColor=none;points=[[0,0.5],[1,0.5]];portConstraint=eastwest;labelBackgroundColor=none;labelBorderColor=none;fontColor=#FFFFFF;strokeColor=#FFFFFF;" parent="41apcGKAr85ElvL8D0TB-175" vertex="1">
          <mxGeometry width="60" height="40" as="geometry" />
        </mxCell>
        <mxCell id="41apcGKAr85ElvL8D0TB-177" value="-1" style="shape=partialRectangle;html=1;whiteSpace=wrap;connectable=0;fillColor=none;top=0;left=0;bottom=0;right=0;overflow=hidden;labelBackgroundColor=none;labelBorderColor=none;fontColor=#000000;strokeColor=#FFFFFF;" parent="41apcGKAr85ElvL8D0TB-176" vertex="1">
          <mxGeometry width="60" height="40" as="geometry">
            <mxRectangle width="60" height="40" as="alternateBounds" />
          </mxGeometry>
        </mxCell>
        <mxCell id="41apcGKAr85ElvL8D0TB-178" value="添加数据&lt;br&gt;add(data1)，rear位置向后加1" style="text;html=1;align=center;verticalAlign=middle;resizable=0;points=[];autosize=1;strokeColor=none;fillColor=none;fontColor=#000000;" parent="1" vertex="1">
          <mxGeometry x="45" y="530" width="170" height="30" as="geometry" />
        </mxCell>
        <object label="" id="41apcGKAr85ElvL8D0TB-179">
          <mxCell style="shape=table;html=1;whiteSpace=wrap;startSize=0;container=1;collapsible=0;childLayout=tableLayout;labelBackgroundColor=none;labelBorderColor=none;fontColor=#FFFFFF;strokeColor=#000000;fillColor=#FFFFFF;" parent="1" vertex="1">
            <mxGeometry x="320" y="720" width="300" height="80" as="geometry" />
          </mxCell>
        </object>
        <mxCell id="41apcGKAr85ElvL8D0TB-180" value="" style="shape=tableRow;horizontal=0;startSize=0;swimlaneHead=0;swimlaneBody=0;top=0;left=0;bottom=0;right=0;collapsible=0;dropTarget=0;fillColor=none;points=[[0,0.5],[1,0.5]];portConstraint=eastwest;labelBackgroundColor=none;labelBorderColor=none;fontColor=#FFFFFF;strokeColor=#FFFFFF;" parent="41apcGKAr85ElvL8D0TB-179" vertex="1">
          <mxGeometry width="300" height="40" as="geometry" />
        </mxCell>
        <mxCell id="41apcGKAr85ElvL8D0TB-181" value="data1" style="shape=partialRectangle;html=1;whiteSpace=wrap;connectable=0;fillColor=#66FFB3;top=0;left=0;bottom=0;right=0;overflow=hidden;labelBackgroundColor=none;labelBorderColor=none;fontColor=#000000;strokeColor=default;" parent="41apcGKAr85ElvL8D0TB-180" vertex="1">
          <mxGeometry width="60" height="40" as="geometry">
            <mxRectangle width="60" height="40" as="alternateBounds" />
          </mxGeometry>
        </mxCell>
        <mxCell id="41apcGKAr85ElvL8D0TB-182" value="data2" style="shape=partialRectangle;html=1;whiteSpace=wrap;connectable=0;fillColor=#66FFB3;top=0;left=0;bottom=0;right=0;overflow=hidden;labelBackgroundColor=none;labelBorderColor=none;fontColor=#000000;strokeColor=#000000;" parent="41apcGKAr85ElvL8D0TB-180" vertex="1">
          <mxGeometry x="60" width="60" height="40" as="geometry">
            <mxRectangle width="60" height="40" as="alternateBounds" />
          </mxGeometry>
        </mxCell>
        <mxCell id="41apcGKAr85ElvL8D0TB-183" value="" style="shape=partialRectangle;html=1;whiteSpace=wrap;connectable=0;fillColor=none;top=0;left=0;bottom=0;right=0;overflow=hidden;labelBackgroundColor=none;labelBorderColor=none;fontColor=#000000;strokeColor=#FFFFFF;" parent="41apcGKAr85ElvL8D0TB-180" vertex="1">
          <mxGeometry x="120" width="60" height="40" as="geometry">
            <mxRectangle width="60" height="40" as="alternateBounds" />
          </mxGeometry>
        </mxCell>
        <mxCell id="41apcGKAr85ElvL8D0TB-184" style="shape=partialRectangle;html=1;whiteSpace=wrap;connectable=0;fillColor=none;top=0;left=0;bottom=0;right=0;overflow=hidden;labelBackgroundColor=none;labelBorderColor=none;fontColor=#000000;strokeColor=#FFFFFF;" parent="41apcGKAr85ElvL8D0TB-180" vertex="1">
          <mxGeometry x="180" width="60" height="40" as="geometry">
            <mxRectangle width="60" height="40" as="alternateBounds" />
          </mxGeometry>
        </mxCell>
        <mxCell id="41apcGKAr85ElvL8D0TB-185" style="shape=partialRectangle;html=1;whiteSpace=wrap;connectable=0;fillColor=none;top=0;left=0;bottom=0;right=0;overflow=hidden;labelBackgroundColor=none;labelBorderColor=none;fontColor=#000000;strokeColor=#FFFFFF;" parent="41apcGKAr85ElvL8D0TB-180" vertex="1">
          <mxGeometry x="240" width="60" height="40" as="geometry">
            <mxRectangle width="60" height="40" as="alternateBounds" />
          </mxGeometry>
        </mxCell>
        <mxCell id="41apcGKAr85ElvL8D0TB-186" style="shape=tableRow;horizontal=0;startSize=0;swimlaneHead=0;swimlaneBody=0;top=0;left=0;bottom=0;right=0;collapsible=0;dropTarget=0;fillColor=none;points=[[0,0.5],[1,0.5]];portConstraint=eastwest;labelBackgroundColor=none;labelBorderColor=none;fontColor=#FFFFFF;strokeColor=#FFFFFF;" parent="41apcGKAr85ElvL8D0TB-179" vertex="1">
          <mxGeometry y="40" width="300" height="40" as="geometry" />
        </mxCell>
        <mxCell id="41apcGKAr85ElvL8D0TB-187" value="0" style="shape=partialRectangle;html=1;whiteSpace=wrap;connectable=0;fillColor=none;top=0;left=0;bottom=0;right=0;overflow=hidden;labelBackgroundColor=none;labelBorderColor=none;fontColor=#000000;strokeColor=#FFFFFF;" parent="41apcGKAr85ElvL8D0TB-186" vertex="1">
          <mxGeometry width="60" height="40" as="geometry">
            <mxRectangle width="60" height="40" as="alternateBounds" />
          </mxGeometry>
        </mxCell>
        <mxCell id="41apcGKAr85ElvL8D0TB-188" value="1" style="shape=partialRectangle;html=1;whiteSpace=wrap;connectable=0;fillColor=none;top=0;left=0;bottom=0;right=0;overflow=hidden;labelBackgroundColor=none;labelBorderColor=none;fontColor=#000000;strokeColor=#FFFFFF;" parent="41apcGKAr85ElvL8D0TB-186" vertex="1">
          <mxGeometry x="60" width="60" height="40" as="geometry">
            <mxRectangle width="60" height="40" as="alternateBounds" />
          </mxGeometry>
        </mxCell>
        <mxCell id="41apcGKAr85ElvL8D0TB-189" value="2" style="shape=partialRectangle;html=1;whiteSpace=wrap;connectable=0;fillColor=none;top=0;left=0;bottom=0;right=0;overflow=hidden;labelBackgroundColor=none;labelBorderColor=none;fontColor=#000000;strokeColor=#FFFFFF;" parent="41apcGKAr85ElvL8D0TB-186" vertex="1">
          <mxGeometry x="120" width="60" height="40" as="geometry">
            <mxRectangle width="60" height="40" as="alternateBounds" />
          </mxGeometry>
        </mxCell>
        <mxCell id="41apcGKAr85ElvL8D0TB-190" value="3" style="shape=partialRectangle;html=1;whiteSpace=wrap;connectable=0;fillColor=none;top=0;left=0;bottom=0;right=0;overflow=hidden;labelBackgroundColor=none;labelBorderColor=none;fontColor=#000000;strokeColor=#FFFFFF;" parent="41apcGKAr85ElvL8D0TB-186" vertex="1">
          <mxGeometry x="180" width="60" height="40" as="geometry">
            <mxRectangle width="60" height="40" as="alternateBounds" />
          </mxGeometry>
        </mxCell>
        <mxCell id="41apcGKAr85ElvL8D0TB-191" value="4" style="shape=partialRectangle;html=1;whiteSpace=wrap;connectable=0;fillColor=none;top=0;left=0;bottom=0;right=0;overflow=hidden;labelBackgroundColor=none;labelBorderColor=none;fontColor=#000000;strokeColor=#FFFFFF;" parent="41apcGKAr85ElvL8D0TB-186" vertex="1">
          <mxGeometry x="240" width="60" height="40" as="geometry">
            <mxRectangle width="60" height="40" as="alternateBounds" />
          </mxGeometry>
        </mxCell>
        <mxCell id="41apcGKAr85ElvL8D0TB-192" value="rear" style="text;html=1;strokeColor=none;fillColor=none;align=center;verticalAlign=middle;whiteSpace=wrap;rounded=0;labelBackgroundColor=none;labelBorderColor=none;fontColor=#000000;" parent="1" vertex="1">
          <mxGeometry x="380" y="840" width="60" height="30" as="geometry" />
        </mxCell>
        <mxCell id="41apcGKAr85ElvL8D0TB-193" value="front" style="text;html=1;strokeColor=none;fillColor=none;align=center;verticalAlign=middle;whiteSpace=wrap;rounded=0;labelBackgroundColor=none;labelBorderColor=none;fontColor=#000000;" parent="1" vertex="1">
          <mxGeometry x="260" y="840" width="60" height="30" as="geometry" />
        </mxCell>
        <mxCell id="41apcGKAr85ElvL8D0TB-194" value="" style="endArrow=classic;html=1;rounded=0;fontColor=#000000;exitX=0.5;exitY=0;exitDx=0;exitDy=0;" parent="1" source="41apcGKAr85ElvL8D0TB-193" edge="1">
          <mxGeometry width="50" height="50" relative="1" as="geometry">
            <mxPoint x="440" y="1110" as="sourcePoint" />
            <mxPoint x="290" y="800" as="targetPoint" />
          </mxGeometry>
        </mxCell>
        <mxCell id="41apcGKAr85ElvL8D0TB-195" value="" style="endArrow=classic;html=1;rounded=0;fontColor=#000000;exitX=0.5;exitY=0;exitDx=0;exitDy=0;" parent="1" source="41apcGKAr85ElvL8D0TB-192" edge="1">
          <mxGeometry width="50" height="50" relative="1" as="geometry">
            <mxPoint x="500" y="1110" as="sourcePoint" />
            <mxPoint x="410" y="800" as="targetPoint" />
          </mxGeometry>
        </mxCell>
        <object label="" id="41apcGKAr85ElvL8D0TB-196">
          <mxCell style="shape=table;html=1;whiteSpace=wrap;startSize=0;container=1;collapsible=0;childLayout=tableLayout;labelBackgroundColor=none;labelBorderColor=none;fontColor=#FFFFFF;strokeColor=#000000;fillColor=#FFFFFF;" parent="1" vertex="1">
            <mxGeometry x="260" y="760" width="60" height="40" as="geometry" />
          </mxCell>
        </object>
        <mxCell id="41apcGKAr85ElvL8D0TB-197" value="" style="shape=tableRow;horizontal=0;startSize=0;swimlaneHead=0;swimlaneBody=0;top=0;left=0;bottom=0;right=0;collapsible=0;dropTarget=0;fillColor=none;points=[[0,0.5],[1,0.5]];portConstraint=eastwest;labelBackgroundColor=none;labelBorderColor=none;fontColor=#FFFFFF;strokeColor=#FFFFFF;" parent="41apcGKAr85ElvL8D0TB-196" vertex="1">
          <mxGeometry width="60" height="40" as="geometry" />
        </mxCell>
        <mxCell id="41apcGKAr85ElvL8D0TB-198" value="-1" style="shape=partialRectangle;html=1;whiteSpace=wrap;connectable=0;fillColor=none;top=0;left=0;bottom=0;right=0;overflow=hidden;labelBackgroundColor=none;labelBorderColor=none;fontColor=#000000;strokeColor=#FFFFFF;" parent="41apcGKAr85ElvL8D0TB-197" vertex="1">
          <mxGeometry width="60" height="40" as="geometry">
            <mxRectangle width="60" height="40" as="alternateBounds" />
          </mxGeometry>
        </mxCell>
        <mxCell id="41apcGKAr85ElvL8D0TB-199" value="添加数据&lt;br&gt;add(data2)，rear位置向后加1" style="text;html=1;align=center;verticalAlign=middle;resizable=0;points=[];autosize=1;strokeColor=none;fillColor=none;fontColor=#000000;" parent="1" vertex="1">
          <mxGeometry x="35" y="760" width="170" height="30" as="geometry" />
        </mxCell>
        <mxCell id="41apcGKAr85ElvL8D0TB-200" value="arr" style="text;html=1;align=center;verticalAlign=middle;resizable=0;points=[];autosize=1;strokeColor=none;fillColor=none;fontColor=#000000;" parent="1" vertex="1">
          <mxGeometry x="205" y="310" width="30" height="20" as="geometry" />
        </mxCell>
        <mxCell id="41apcGKAr85ElvL8D0TB-201" value="arr" style="text;html=1;align=center;verticalAlign=middle;resizable=0;points=[];autosize=1;strokeColor=none;fillColor=none;fontColor=#000000;" parent="1" vertex="1">
          <mxGeometry x="205" y="530" width="30" height="20" as="geometry" />
        </mxCell>
        <mxCell id="41apcGKAr85ElvL8D0TB-202" value="arr" style="text;html=1;align=center;verticalAlign=middle;resizable=0;points=[];autosize=1;strokeColor=none;fillColor=none;fontColor=#000000;" parent="1" vertex="1">
          <mxGeometry x="205" y="750" width="30" height="20" as="geometry" />
        </mxCell>
        <object label="" id="41apcGKAr85ElvL8D0TB-203">
          <mxCell style="shape=table;html=1;whiteSpace=wrap;startSize=0;container=1;collapsible=0;childLayout=tableLayout;labelBackgroundColor=none;labelBorderColor=none;fontColor=#FFFFFF;strokeColor=#000000;fillColor=#FFFFFF;" parent="1" vertex="1">
            <mxGeometry x="320" y="910" width="300" height="80" as="geometry" />
          </mxCell>
        </object>
        <mxCell id="41apcGKAr85ElvL8D0TB-204" value="" style="shape=tableRow;horizontal=0;startSize=0;swimlaneHead=0;swimlaneBody=0;top=0;left=0;bottom=0;right=0;collapsible=0;dropTarget=0;fillColor=none;points=[[0,0.5],[1,0.5]];portConstraint=eastwest;labelBackgroundColor=none;labelBorderColor=none;fontColor=#FFFFFF;strokeColor=#FFFFFF;" parent="41apcGKAr85ElvL8D0TB-203" vertex="1">
          <mxGeometry width="300" height="40" as="geometry" />
        </mxCell>
        <mxCell id="41apcGKAr85ElvL8D0TB-205" value="data1" style="shape=partialRectangle;html=1;whiteSpace=wrap;connectable=0;fillColor=#E6E6E6;top=0;left=0;bottom=0;right=0;overflow=hidden;labelBackgroundColor=none;labelBorderColor=none;fontColor=#000000;strokeColor=default;" parent="41apcGKAr85ElvL8D0TB-204" vertex="1">
          <mxGeometry width="60" height="40" as="geometry">
            <mxRectangle width="60" height="40" as="alternateBounds" />
          </mxGeometry>
        </mxCell>
        <mxCell id="41apcGKAr85ElvL8D0TB-206" value="data2" style="shape=partialRectangle;html=1;whiteSpace=wrap;connectable=0;fillColor=#66FFB3;top=0;left=0;bottom=0;right=0;overflow=hidden;labelBackgroundColor=none;labelBorderColor=none;fontColor=#000000;strokeColor=#000000;" parent="41apcGKAr85ElvL8D0TB-204" vertex="1">
          <mxGeometry x="60" width="60" height="40" as="geometry">
            <mxRectangle width="60" height="40" as="alternateBounds" />
          </mxGeometry>
        </mxCell>
        <mxCell id="41apcGKAr85ElvL8D0TB-207" value="" style="shape=partialRectangle;html=1;whiteSpace=wrap;connectable=0;fillColor=none;top=0;left=0;bottom=0;right=0;overflow=hidden;labelBackgroundColor=none;labelBorderColor=none;fontColor=#000000;strokeColor=#FFFFFF;" parent="41apcGKAr85ElvL8D0TB-204" vertex="1">
          <mxGeometry x="120" width="60" height="40" as="geometry">
            <mxRectangle width="60" height="40" as="alternateBounds" />
          </mxGeometry>
        </mxCell>
        <mxCell id="41apcGKAr85ElvL8D0TB-208" style="shape=partialRectangle;html=1;whiteSpace=wrap;connectable=0;fillColor=none;top=0;left=0;bottom=0;right=0;overflow=hidden;labelBackgroundColor=none;labelBorderColor=none;fontColor=#000000;strokeColor=#FFFFFF;" parent="41apcGKAr85ElvL8D0TB-204" vertex="1">
          <mxGeometry x="180" width="60" height="40" as="geometry">
            <mxRectangle width="60" height="40" as="alternateBounds" />
          </mxGeometry>
        </mxCell>
        <mxCell id="41apcGKAr85ElvL8D0TB-209" style="shape=partialRectangle;html=1;whiteSpace=wrap;connectable=0;fillColor=none;top=0;left=0;bottom=0;right=0;overflow=hidden;labelBackgroundColor=none;labelBorderColor=none;fontColor=#000000;strokeColor=#FFFFFF;" parent="41apcGKAr85ElvL8D0TB-204" vertex="1">
          <mxGeometry x="240" width="60" height="40" as="geometry">
            <mxRectangle width="60" height="40" as="alternateBounds" />
          </mxGeometry>
        </mxCell>
        <mxCell id="41apcGKAr85ElvL8D0TB-210" style="shape=tableRow;horizontal=0;startSize=0;swimlaneHead=0;swimlaneBody=0;top=0;left=0;bottom=0;right=0;collapsible=0;dropTarget=0;fillColor=none;points=[[0,0.5],[1,0.5]];portConstraint=eastwest;labelBackgroundColor=none;labelBorderColor=none;fontColor=#FFFFFF;strokeColor=#FFFFFF;" parent="41apcGKAr85ElvL8D0TB-203" vertex="1">
          <mxGeometry y="40" width="300" height="40" as="geometry" />
        </mxCell>
        <mxCell id="41apcGKAr85ElvL8D0TB-211" value="0" style="shape=partialRectangle;html=1;whiteSpace=wrap;connectable=0;fillColor=none;top=0;left=0;bottom=0;right=0;overflow=hidden;labelBackgroundColor=none;labelBorderColor=none;fontColor=#000000;strokeColor=#FFFFFF;" parent="41apcGKAr85ElvL8D0TB-210" vertex="1">
          <mxGeometry width="60" height="40" as="geometry">
            <mxRectangle width="60" height="40" as="alternateBounds" />
          </mxGeometry>
        </mxCell>
        <mxCell id="41apcGKAr85ElvL8D0TB-212" value="1" style="shape=partialRectangle;html=1;whiteSpace=wrap;connectable=0;fillColor=none;top=0;left=0;bottom=0;right=0;overflow=hidden;labelBackgroundColor=none;labelBorderColor=none;fontColor=#000000;strokeColor=#FFFFFF;" parent="41apcGKAr85ElvL8D0TB-210" vertex="1">
          <mxGeometry x="60" width="60" height="40" as="geometry">
            <mxRectangle width="60" height="40" as="alternateBounds" />
          </mxGeometry>
        </mxCell>
        <mxCell id="41apcGKAr85ElvL8D0TB-213" value="2" style="shape=partialRectangle;html=1;whiteSpace=wrap;connectable=0;fillColor=none;top=0;left=0;bottom=0;right=0;overflow=hidden;labelBackgroundColor=none;labelBorderColor=none;fontColor=#000000;strokeColor=#FFFFFF;" parent="41apcGKAr85ElvL8D0TB-210" vertex="1">
          <mxGeometry x="120" width="60" height="40" as="geometry">
            <mxRectangle width="60" height="40" as="alternateBounds" />
          </mxGeometry>
        </mxCell>
        <mxCell id="41apcGKAr85ElvL8D0TB-214" value="3" style="shape=partialRectangle;html=1;whiteSpace=wrap;connectable=0;fillColor=none;top=0;left=0;bottom=0;right=0;overflow=hidden;labelBackgroundColor=none;labelBorderColor=none;fontColor=#000000;strokeColor=#FFFFFF;" parent="41apcGKAr85ElvL8D0TB-210" vertex="1">
          <mxGeometry x="180" width="60" height="40" as="geometry">
            <mxRectangle width="60" height="40" as="alternateBounds" />
          </mxGeometry>
        </mxCell>
        <mxCell id="41apcGKAr85ElvL8D0TB-215" value="4" style="shape=partialRectangle;html=1;whiteSpace=wrap;connectable=0;fillColor=none;top=0;left=0;bottom=0;right=0;overflow=hidden;labelBackgroundColor=none;labelBorderColor=none;fontColor=#000000;strokeColor=#FFFFFF;" parent="41apcGKAr85ElvL8D0TB-210" vertex="1">
          <mxGeometry x="240" width="60" height="40" as="geometry">
            <mxRectangle width="60" height="40" as="alternateBounds" />
          </mxGeometry>
        </mxCell>
        <mxCell id="41apcGKAr85ElvL8D0TB-216" value="rear" style="text;html=1;strokeColor=none;fillColor=none;align=center;verticalAlign=middle;whiteSpace=wrap;rounded=0;labelBackgroundColor=none;labelBorderColor=none;fontColor=#000000;" parent="1" vertex="1">
          <mxGeometry x="380" y="1030" width="60" height="30" as="geometry" />
        </mxCell>
        <mxCell id="41apcGKAr85ElvL8D0TB-217" value="front" style="text;html=1;strokeColor=none;fillColor=none;align=center;verticalAlign=middle;whiteSpace=wrap;rounded=0;labelBackgroundColor=none;labelBorderColor=none;fontColor=#000000;" parent="1" vertex="1">
          <mxGeometry x="320" y="1030" width="60" height="30" as="geometry" />
        </mxCell>
        <mxCell id="41apcGKAr85ElvL8D0TB-218" value="" style="endArrow=classic;html=1;rounded=0;fontColor=#000000;exitX=0.5;exitY=0;exitDx=0;exitDy=0;entryX=0.096;entryY=0.992;entryDx=0;entryDy=0;entryPerimeter=0;" parent="1" source="41apcGKAr85ElvL8D0TB-217" target="41apcGKAr85ElvL8D0TB-210" edge="1">
          <mxGeometry width="50" height="50" relative="1" as="geometry">
            <mxPoint x="440" y="1300" as="sourcePoint" />
            <mxPoint x="290" y="990" as="targetPoint" />
          </mxGeometry>
        </mxCell>
        <mxCell id="41apcGKAr85ElvL8D0TB-219" value="" style="endArrow=classic;html=1;rounded=0;fontColor=#000000;exitX=0.5;exitY=0;exitDx=0;exitDy=0;" parent="1" source="41apcGKAr85ElvL8D0TB-216" edge="1">
          <mxGeometry width="50" height="50" relative="1" as="geometry">
            <mxPoint x="500" y="1300" as="sourcePoint" />
            <mxPoint x="410" y="990" as="targetPoint" />
          </mxGeometry>
        </mxCell>
        <object label="" id="41apcGKAr85ElvL8D0TB-220">
          <mxCell style="shape=table;html=1;whiteSpace=wrap;startSize=0;container=1;collapsible=0;childLayout=tableLayout;labelBackgroundColor=none;labelBorderColor=none;fontColor=#FFFFFF;strokeColor=#000000;fillColor=#FFFFFF;" parent="1" vertex="1">
            <mxGeometry x="260" y="950" width="60" height="40" as="geometry" />
          </mxCell>
        </object>
        <mxCell id="41apcGKAr85ElvL8D0TB-221" value="" style="shape=tableRow;horizontal=0;startSize=0;swimlaneHead=0;swimlaneBody=0;top=0;left=0;bottom=0;right=0;collapsible=0;dropTarget=0;fillColor=none;points=[[0,0.5],[1,0.5]];portConstraint=eastwest;labelBackgroundColor=none;labelBorderColor=none;fontColor=#FFFFFF;strokeColor=#FFFFFF;" parent="41apcGKAr85ElvL8D0TB-220" vertex="1">
          <mxGeometry width="60" height="40" as="geometry" />
        </mxCell>
        <mxCell id="41apcGKAr85ElvL8D0TB-222" value="-1" style="shape=partialRectangle;html=1;whiteSpace=wrap;connectable=0;fillColor=none;top=0;left=0;bottom=0;right=0;overflow=hidden;labelBackgroundColor=none;labelBorderColor=none;fontColor=#000000;strokeColor=#FFFFFF;" parent="41apcGKAr85ElvL8D0TB-221" vertex="1">
          <mxGeometry width="60" height="40" as="geometry">
            <mxRectangle width="60" height="40" as="alternateBounds" />
          </mxGeometry>
        </mxCell>
        <mxCell id="41apcGKAr85ElvL8D0TB-223" value="取出数据&lt;br&gt;get(front+1)，front位置向后加1&lt;br&gt;0位置数据不能访问了" style="text;html=1;align=center;verticalAlign=middle;resizable=0;points=[];autosize=1;strokeColor=none;fillColor=none;fontColor=#000000;" parent="1" vertex="1">
          <mxGeometry x="30" y="930" width="180" height="50" as="geometry" />
        </mxCell>
        <mxCell id="41apcGKAr85ElvL8D0TB-224" value="arr" style="text;html=1;align=center;verticalAlign=middle;resizable=0;points=[];autosize=1;strokeColor=none;fillColor=none;fontColor=#000000;" parent="1" vertex="1">
          <mxGeometry x="205" y="940" width="30" height="20" as="geometry" />
        </mxCell>
        <object label="" id="41apcGKAr85ElvL8D0TB-229">
          <mxCell style="shape=table;html=1;whiteSpace=wrap;startSize=0;container=1;collapsible=0;childLayout=tableLayout;labelBackgroundColor=none;labelBorderColor=none;fontColor=#FFFFFF;strokeColor=#000000;fillColor=#FFFFFF;" parent="1" vertex="1">
            <mxGeometry x="320" y="1100" width="300" height="80" as="geometry" />
          </mxCell>
        </object>
        <mxCell id="41apcGKAr85ElvL8D0TB-230" value="" style="shape=tableRow;horizontal=0;startSize=0;swimlaneHead=0;swimlaneBody=0;top=0;left=0;bottom=0;right=0;collapsible=0;dropTarget=0;fillColor=none;points=[[0,0.5],[1,0.5]];portConstraint=eastwest;labelBackgroundColor=none;labelBorderColor=none;fontColor=#FFFFFF;strokeColor=#FFFFFF;" parent="41apcGKAr85ElvL8D0TB-229" vertex="1">
          <mxGeometry width="300" height="40" as="geometry" />
        </mxCell>
        <mxCell id="41apcGKAr85ElvL8D0TB-231" value="data1" style="shape=partialRectangle;html=1;whiteSpace=wrap;connectable=0;fillColor=#E6E6E6;top=0;left=0;bottom=0;right=0;overflow=hidden;labelBackgroundColor=none;labelBorderColor=none;fontColor=#000000;strokeColor=default;" parent="41apcGKAr85ElvL8D0TB-230" vertex="1">
          <mxGeometry width="60" height="40" as="geometry">
            <mxRectangle width="60" height="40" as="alternateBounds" />
          </mxGeometry>
        </mxCell>
        <mxCell id="41apcGKAr85ElvL8D0TB-232" value="data2" style="shape=partialRectangle;html=1;whiteSpace=wrap;connectable=0;fillColor=#66FFB3;top=0;left=0;bottom=0;right=0;overflow=hidden;labelBackgroundColor=none;labelBorderColor=none;fontColor=#000000;strokeColor=#000000;" parent="41apcGKAr85ElvL8D0TB-230" vertex="1">
          <mxGeometry x="60" width="60" height="40" as="geometry">
            <mxRectangle width="60" height="40" as="alternateBounds" />
          </mxGeometry>
        </mxCell>
        <mxCell id="41apcGKAr85ElvL8D0TB-233" value="data3" style="shape=partialRectangle;html=1;whiteSpace=wrap;connectable=0;fillColor=#66FFB3;top=0;left=0;bottom=0;right=0;overflow=hidden;labelBackgroundColor=none;labelBorderColor=none;fontColor=#000000;strokeColor=#FFFFFF;" parent="41apcGKAr85ElvL8D0TB-230" vertex="1">
          <mxGeometry x="120" width="60" height="40" as="geometry">
            <mxRectangle width="60" height="40" as="alternateBounds" />
          </mxGeometry>
        </mxCell>
        <mxCell id="41apcGKAr85ElvL8D0TB-234" value="data4" style="shape=partialRectangle;html=1;whiteSpace=wrap;connectable=0;fillColor=#66FFB3;top=0;left=0;bottom=0;right=0;overflow=hidden;labelBackgroundColor=none;labelBorderColor=none;fontColor=#000000;strokeColor=#FFFFFF;" parent="41apcGKAr85ElvL8D0TB-230" vertex="1">
          <mxGeometry x="180" width="60" height="40" as="geometry">
            <mxRectangle width="60" height="40" as="alternateBounds" />
          </mxGeometry>
        </mxCell>
        <mxCell id="41apcGKAr85ElvL8D0TB-235" value="data5" style="shape=partialRectangle;html=1;whiteSpace=wrap;connectable=0;fillColor=#66FFB3;top=0;left=0;bottom=0;right=0;overflow=hidden;labelBackgroundColor=none;labelBorderColor=none;fontColor=#000000;strokeColor=#FFFFFF;" parent="41apcGKAr85ElvL8D0TB-230" vertex="1">
          <mxGeometry x="240" width="60" height="40" as="geometry">
            <mxRectangle width="60" height="40" as="alternateBounds" />
          </mxGeometry>
        </mxCell>
        <mxCell id="41apcGKAr85ElvL8D0TB-236" style="shape=tableRow;horizontal=0;startSize=0;swimlaneHead=0;swimlaneBody=0;top=0;left=0;bottom=0;right=0;collapsible=0;dropTarget=0;fillColor=none;points=[[0,0.5],[1,0.5]];portConstraint=eastwest;labelBackgroundColor=none;labelBorderColor=none;fontColor=#FFFFFF;strokeColor=#FFFFFF;" parent="41apcGKAr85ElvL8D0TB-229" vertex="1">
          <mxGeometry y="40" width="300" height="40" as="geometry" />
        </mxCell>
        <mxCell id="41apcGKAr85ElvL8D0TB-237" value="0" style="shape=partialRectangle;html=1;whiteSpace=wrap;connectable=0;fillColor=none;top=0;left=0;bottom=0;right=0;overflow=hidden;labelBackgroundColor=none;labelBorderColor=none;fontColor=#000000;strokeColor=#FFFFFF;" parent="41apcGKAr85ElvL8D0TB-236" vertex="1">
          <mxGeometry width="60" height="40" as="geometry">
            <mxRectangle width="60" height="40" as="alternateBounds" />
          </mxGeometry>
        </mxCell>
        <mxCell id="41apcGKAr85ElvL8D0TB-238" value="1" style="shape=partialRectangle;html=1;whiteSpace=wrap;connectable=0;fillColor=none;top=0;left=0;bottom=0;right=0;overflow=hidden;labelBackgroundColor=none;labelBorderColor=none;fontColor=#000000;strokeColor=#FFFFFF;" parent="41apcGKAr85ElvL8D0TB-236" vertex="1">
          <mxGeometry x="60" width="60" height="40" as="geometry">
            <mxRectangle width="60" height="40" as="alternateBounds" />
          </mxGeometry>
        </mxCell>
        <mxCell id="41apcGKAr85ElvL8D0TB-239" value="2" style="shape=partialRectangle;html=1;whiteSpace=wrap;connectable=0;fillColor=none;top=0;left=0;bottom=0;right=0;overflow=hidden;labelBackgroundColor=none;labelBorderColor=none;fontColor=#000000;strokeColor=#FFFFFF;" parent="41apcGKAr85ElvL8D0TB-236" vertex="1">
          <mxGeometry x="120" width="60" height="40" as="geometry">
            <mxRectangle width="60" height="40" as="alternateBounds" />
          </mxGeometry>
        </mxCell>
        <mxCell id="41apcGKAr85ElvL8D0TB-240" value="3" style="shape=partialRectangle;html=1;whiteSpace=wrap;connectable=0;fillColor=none;top=0;left=0;bottom=0;right=0;overflow=hidden;labelBackgroundColor=none;labelBorderColor=none;fontColor=#000000;strokeColor=#FFFFFF;" parent="41apcGKAr85ElvL8D0TB-236" vertex="1">
          <mxGeometry x="180" width="60" height="40" as="geometry">
            <mxRectangle width="60" height="40" as="alternateBounds" />
          </mxGeometry>
        </mxCell>
        <mxCell id="41apcGKAr85ElvL8D0TB-241" value="4" style="shape=partialRectangle;html=1;whiteSpace=wrap;connectable=0;fillColor=none;top=0;left=0;bottom=0;right=0;overflow=hidden;labelBackgroundColor=none;labelBorderColor=none;fontColor=#000000;strokeColor=#FFFFFF;" parent="41apcGKAr85ElvL8D0TB-236" vertex="1">
          <mxGeometry x="240" width="60" height="40" as="geometry">
            <mxRectangle width="60" height="40" as="alternateBounds" />
          </mxGeometry>
        </mxCell>
        <mxCell id="41apcGKAr85ElvL8D0TB-242" value="rear" style="text;html=1;strokeColor=none;fillColor=none;align=center;verticalAlign=middle;whiteSpace=wrap;rounded=0;labelBackgroundColor=none;labelBorderColor=none;fontColor=#000000;" parent="1" vertex="1">
          <mxGeometry x="560" y="1220" width="60" height="30" as="geometry" />
        </mxCell>
        <mxCell id="41apcGKAr85ElvL8D0TB-243" value="front" style="text;html=1;strokeColor=none;fillColor=none;align=center;verticalAlign=middle;whiteSpace=wrap;rounded=0;labelBackgroundColor=none;labelBorderColor=none;fontColor=#000000;" parent="1" vertex="1">
          <mxGeometry x="320" y="1220" width="60" height="30" as="geometry" />
        </mxCell>
        <mxCell id="41apcGKAr85ElvL8D0TB-244" value="" style="endArrow=classic;html=1;rounded=0;fontColor=#000000;exitX=0.5;exitY=0;exitDx=0;exitDy=0;entryX=0.096;entryY=0.992;entryDx=0;entryDy=0;entryPerimeter=0;" parent="1" source="41apcGKAr85ElvL8D0TB-243" target="41apcGKAr85ElvL8D0TB-236" edge="1">
          <mxGeometry width="50" height="50" relative="1" as="geometry">
            <mxPoint x="440" y="1490" as="sourcePoint" />
            <mxPoint x="290" y="1180" as="targetPoint" />
          </mxGeometry>
        </mxCell>
        <mxCell id="41apcGKAr85ElvL8D0TB-245" value="" style="endArrow=classic;html=1;rounded=0;fontColor=#000000;exitX=0.5;exitY=0;exitDx=0;exitDy=0;entryX=0.902;entryY=1.058;entryDx=0;entryDy=0;entryPerimeter=0;" parent="1" source="41apcGKAr85ElvL8D0TB-242" target="41apcGKAr85ElvL8D0TB-236" edge="1">
          <mxGeometry width="50" height="50" relative="1" as="geometry">
            <mxPoint x="500" y="1490" as="sourcePoint" />
            <mxPoint x="410" y="1180" as="targetPoint" />
          </mxGeometry>
        </mxCell>
        <object label="" id="41apcGKAr85ElvL8D0TB-246">
          <mxCell style="shape=table;html=1;whiteSpace=wrap;startSize=0;container=1;collapsible=0;childLayout=tableLayout;labelBackgroundColor=none;labelBorderColor=none;fontColor=#FFFFFF;strokeColor=#000000;fillColor=#FFFFFF;" parent="1" vertex="1">
            <mxGeometry x="260" y="1140" width="60" height="40" as="geometry" />
          </mxCell>
        </object>
        <mxCell id="41apcGKAr85ElvL8D0TB-247" value="" style="shape=tableRow;horizontal=0;startSize=0;swimlaneHead=0;swimlaneBody=0;top=0;left=0;bottom=0;right=0;collapsible=0;dropTarget=0;fillColor=none;points=[[0,0.5],[1,0.5]];portConstraint=eastwest;labelBackgroundColor=none;labelBorderColor=none;fontColor=#FFFFFF;strokeColor=#FFFFFF;" parent="41apcGKAr85ElvL8D0TB-246" vertex="1">
          <mxGeometry width="60" height="40" as="geometry" />
        </mxCell>
        <mxCell id="41apcGKAr85ElvL8D0TB-248" value="-1" style="shape=partialRectangle;html=1;whiteSpace=wrap;connectable=0;fillColor=none;top=0;left=0;bottom=0;right=0;overflow=hidden;labelBackgroundColor=none;labelBorderColor=none;fontColor=#000000;strokeColor=#FFFFFF;" parent="41apcGKAr85ElvL8D0TB-247" vertex="1">
          <mxGeometry width="60" height="40" as="geometry">
            <mxRectangle width="60" height="40" as="alternateBounds" />
          </mxGeometry>
        </mxCell>
        <mxCell id="41apcGKAr85ElvL8D0TB-249" value="再存放3个数据&lt;br&gt;add(data3)，rear=2&lt;br&gt;add(data4)，rear=3&lt;br&gt;add(data5)，rear=4&lt;br&gt;rear位置向后加3，&lt;br&gt;到4的位置，队列已占满" style="text;html=1;align=center;verticalAlign=middle;resizable=0;points=[];autosize=1;strokeColor=none;fillColor=none;fontColor=#000000;" parent="1" vertex="1">
          <mxGeometry x="50" y="1100" width="140" height="90" as="geometry" />
        </mxCell>
        <mxCell id="41apcGKAr85ElvL8D0TB-250" value="arr" style="text;html=1;align=center;verticalAlign=middle;resizable=0;points=[];autosize=1;strokeColor=none;fillColor=none;fontColor=#000000;" parent="1" vertex="1">
          <mxGeometry x="205" y="1130" width="30" height="20" as="geometry" />
        </mxCell>
        <object label="" id="41apcGKAr85ElvL8D0TB-251">
          <mxCell style="shape=table;html=1;whiteSpace=wrap;startSize=0;container=1;collapsible=0;childLayout=tableLayout;labelBackgroundColor=none;labelBorderColor=none;fontColor=#FFFFFF;strokeColor=#000000;fillColor=#FFFFFF;" parent="1" vertex="1">
            <mxGeometry x="315" y="1310" width="300" height="80" as="geometry" />
          </mxCell>
        </object>
        <mxCell id="41apcGKAr85ElvL8D0TB-252" value="" style="shape=tableRow;horizontal=0;startSize=0;swimlaneHead=0;swimlaneBody=0;top=0;left=0;bottom=0;right=0;collapsible=0;dropTarget=0;fillColor=none;points=[[0,0.5],[1,0.5]];portConstraint=eastwest;labelBackgroundColor=none;labelBorderColor=none;fontColor=#FFFFFF;strokeColor=#FFFFFF;" parent="41apcGKAr85ElvL8D0TB-251" vertex="1">
          <mxGeometry width="300" height="40" as="geometry" />
        </mxCell>
        <mxCell id="41apcGKAr85ElvL8D0TB-253" value="data1" style="shape=partialRectangle;html=1;whiteSpace=wrap;connectable=0;fillColor=#E6E6E6;top=0;left=0;bottom=0;right=0;overflow=hidden;labelBackgroundColor=none;labelBorderColor=none;fontColor=#000000;strokeColor=default;" parent="41apcGKAr85ElvL8D0TB-252" vertex="1">
          <mxGeometry width="60" height="40" as="geometry">
            <mxRectangle width="60" height="40" as="alternateBounds" />
          </mxGeometry>
        </mxCell>
        <mxCell id="41apcGKAr85ElvL8D0TB-254" value="data2" style="shape=partialRectangle;html=1;whiteSpace=wrap;connectable=0;fillColor=#E6E6E6;top=0;left=0;bottom=0;right=0;overflow=hidden;labelBackgroundColor=none;labelBorderColor=none;fontColor=#000000;strokeColor=#000000;" parent="41apcGKAr85ElvL8D0TB-252" vertex="1">
          <mxGeometry x="60" width="60" height="40" as="geometry">
            <mxRectangle width="60" height="40" as="alternateBounds" />
          </mxGeometry>
        </mxCell>
        <mxCell id="41apcGKAr85ElvL8D0TB-255" value="data3" style="shape=partialRectangle;html=1;whiteSpace=wrap;connectable=0;fillColor=#E6E6E6;top=0;left=0;bottom=0;right=0;overflow=hidden;labelBackgroundColor=none;labelBorderColor=none;fontColor=#000000;strokeColor=#FFFFFF;" parent="41apcGKAr85ElvL8D0TB-252" vertex="1">
          <mxGeometry x="120" width="60" height="40" as="geometry">
            <mxRectangle width="60" height="40" as="alternateBounds" />
          </mxGeometry>
        </mxCell>
        <mxCell id="41apcGKAr85ElvL8D0TB-256" value="data4" style="shape=partialRectangle;html=1;whiteSpace=wrap;connectable=0;fillColor=#E6E6E6;top=0;left=0;bottom=0;right=0;overflow=hidden;labelBackgroundColor=none;labelBorderColor=none;fontColor=#000000;strokeColor=#FFFFFF;" parent="41apcGKAr85ElvL8D0TB-252" vertex="1">
          <mxGeometry x="180" width="60" height="40" as="geometry">
            <mxRectangle width="60" height="40" as="alternateBounds" />
          </mxGeometry>
        </mxCell>
        <mxCell id="41apcGKAr85ElvL8D0TB-257" value="data5" style="shape=partialRectangle;html=1;whiteSpace=wrap;connectable=0;fillColor=#E6E6E6;top=0;left=0;bottom=0;right=0;overflow=hidden;labelBackgroundColor=none;labelBorderColor=none;fontColor=#000000;strokeColor=#FFFFFF;" parent="41apcGKAr85ElvL8D0TB-252" vertex="1">
          <mxGeometry x="240" width="60" height="40" as="geometry">
            <mxRectangle width="60" height="40" as="alternateBounds" />
          </mxGeometry>
        </mxCell>
        <mxCell id="41apcGKAr85ElvL8D0TB-258" style="shape=tableRow;horizontal=0;startSize=0;swimlaneHead=0;swimlaneBody=0;top=0;left=0;bottom=0;right=0;collapsible=0;dropTarget=0;fillColor=none;points=[[0,0.5],[1,0.5]];portConstraint=eastwest;labelBackgroundColor=none;labelBorderColor=none;fontColor=#FFFFFF;strokeColor=#FFFFFF;" parent="41apcGKAr85ElvL8D0TB-251" vertex="1">
          <mxGeometry y="40" width="300" height="40" as="geometry" />
        </mxCell>
        <mxCell id="41apcGKAr85ElvL8D0TB-259" value="0" style="shape=partialRectangle;html=1;whiteSpace=wrap;connectable=0;fillColor=none;top=0;left=0;bottom=0;right=0;overflow=hidden;labelBackgroundColor=none;labelBorderColor=none;fontColor=#000000;strokeColor=#FFFFFF;" parent="41apcGKAr85ElvL8D0TB-258" vertex="1">
          <mxGeometry width="60" height="40" as="geometry">
            <mxRectangle width="60" height="40" as="alternateBounds" />
          </mxGeometry>
        </mxCell>
        <mxCell id="41apcGKAr85ElvL8D0TB-260" value="1" style="shape=partialRectangle;html=1;whiteSpace=wrap;connectable=0;fillColor=none;top=0;left=0;bottom=0;right=0;overflow=hidden;labelBackgroundColor=none;labelBorderColor=none;fontColor=#000000;strokeColor=#FFFFFF;" parent="41apcGKAr85ElvL8D0TB-258" vertex="1">
          <mxGeometry x="60" width="60" height="40" as="geometry">
            <mxRectangle width="60" height="40" as="alternateBounds" />
          </mxGeometry>
        </mxCell>
        <mxCell id="41apcGKAr85ElvL8D0TB-261" value="2" style="shape=partialRectangle;html=1;whiteSpace=wrap;connectable=0;fillColor=none;top=0;left=0;bottom=0;right=0;overflow=hidden;labelBackgroundColor=none;labelBorderColor=none;fontColor=#000000;strokeColor=#FFFFFF;" parent="41apcGKAr85ElvL8D0TB-258" vertex="1">
          <mxGeometry x="120" width="60" height="40" as="geometry">
            <mxRectangle width="60" height="40" as="alternateBounds" />
          </mxGeometry>
        </mxCell>
        <mxCell id="41apcGKAr85ElvL8D0TB-262" value="3" style="shape=partialRectangle;html=1;whiteSpace=wrap;connectable=0;fillColor=none;top=0;left=0;bottom=0;right=0;overflow=hidden;labelBackgroundColor=none;labelBorderColor=none;fontColor=#000000;strokeColor=#FFFFFF;" parent="41apcGKAr85ElvL8D0TB-258" vertex="1">
          <mxGeometry x="180" width="60" height="40" as="geometry">
            <mxRectangle width="60" height="40" as="alternateBounds" />
          </mxGeometry>
        </mxCell>
        <mxCell id="41apcGKAr85ElvL8D0TB-263" value="4" style="shape=partialRectangle;html=1;whiteSpace=wrap;connectable=0;fillColor=none;top=0;left=0;bottom=0;right=0;overflow=hidden;labelBackgroundColor=none;labelBorderColor=none;fontColor=#000000;strokeColor=#FFFFFF;" parent="41apcGKAr85ElvL8D0TB-258" vertex="1">
          <mxGeometry x="240" width="60" height="40" as="geometry">
            <mxRectangle width="60" height="40" as="alternateBounds" />
          </mxGeometry>
        </mxCell>
        <mxCell id="41apcGKAr85ElvL8D0TB-264" value="rear" style="text;html=1;strokeColor=none;fillColor=none;align=center;verticalAlign=middle;whiteSpace=wrap;rounded=0;labelBackgroundColor=none;labelBorderColor=none;fontColor=#000000;" parent="1" vertex="1">
          <mxGeometry x="580" y="1430" width="60" height="30" as="geometry" />
        </mxCell>
        <mxCell id="41apcGKAr85ElvL8D0TB-267" value="" style="endArrow=classic;html=1;rounded=0;fontColor=#000000;exitX=0.5;exitY=0;exitDx=0;exitDy=0;entryX=0.902;entryY=1.058;entryDx=0;entryDy=0;entryPerimeter=0;" parent="1" source="41apcGKAr85ElvL8D0TB-264" target="41apcGKAr85ElvL8D0TB-258" edge="1">
          <mxGeometry width="50" height="50" relative="1" as="geometry">
            <mxPoint x="495" y="1700" as="sourcePoint" />
            <mxPoint x="405" y="1390" as="targetPoint" />
          </mxGeometry>
        </mxCell>
        <object label="" id="41apcGKAr85ElvL8D0TB-268">
          <mxCell style="shape=table;html=1;whiteSpace=wrap;startSize=0;container=1;collapsible=0;childLayout=tableLayout;labelBackgroundColor=none;labelBorderColor=none;fontColor=#FFFFFF;strokeColor=#000000;fillColor=#FFFFFF;" parent="1" vertex="1">
            <mxGeometry x="255" y="1350" width="60" height="40" as="geometry" />
          </mxCell>
        </object>
        <mxCell id="41apcGKAr85ElvL8D0TB-269" value="" style="shape=tableRow;horizontal=0;startSize=0;swimlaneHead=0;swimlaneBody=0;top=0;left=0;bottom=0;right=0;collapsible=0;dropTarget=0;fillColor=none;points=[[0,0.5],[1,0.5]];portConstraint=eastwest;labelBackgroundColor=none;labelBorderColor=none;fontColor=#FFFFFF;strokeColor=#FFFFFF;" parent="41apcGKAr85ElvL8D0TB-268" vertex="1">
          <mxGeometry width="60" height="40" as="geometry" />
        </mxCell>
        <mxCell id="41apcGKAr85ElvL8D0TB-270" value="-1" style="shape=partialRectangle;html=1;whiteSpace=wrap;connectable=0;fillColor=none;top=0;left=0;bottom=0;right=0;overflow=hidden;labelBackgroundColor=none;labelBorderColor=none;fontColor=#000000;strokeColor=#FFFFFF;" parent="41apcGKAr85ElvL8D0TB-269" vertex="1">
          <mxGeometry width="60" height="40" as="geometry">
            <mxRectangle width="60" height="40" as="alternateBounds" />
          </mxGeometry>
        </mxCell>
        <mxCell id="41apcGKAr85ElvL8D0TB-271" value="再存放3个数据&lt;br&gt;get(front+1)，front=1&lt;br&gt;get(front+1)，front=2&lt;br&gt;get(front+1)，front=3&lt;br&gt;get(front+1)，front=4&lt;br&gt;front到4的位置，队列取出完毕" style="text;html=1;align=center;verticalAlign=middle;resizable=0;points=[];autosize=1;strokeColor=none;fillColor=none;fontColor=#000000;" parent="1" vertex="1">
          <mxGeometry x="25" y="1310" width="180" height="90" as="geometry" />
        </mxCell>
        <mxCell id="41apcGKAr85ElvL8D0TB-272" value="arr" style="text;html=1;align=center;verticalAlign=middle;resizable=0;points=[];autosize=1;strokeColor=none;fillColor=none;fontColor=#000000;" parent="1" vertex="1">
          <mxGeometry x="200" y="1340" width="30" height="20" as="geometry" />
        </mxCell>
        <mxCell id="41apcGKAr85ElvL8D0TB-274" value="front" style="text;html=1;strokeColor=none;fillColor=none;align=center;verticalAlign=middle;whiteSpace=wrap;rounded=0;labelBackgroundColor=none;labelBorderColor=none;fontColor=#000000;" parent="1" vertex="1">
          <mxGeometry x="520" y="1430" width="60" height="30" as="geometry" />
        </mxCell>
        <mxCell id="41apcGKAr85ElvL8D0TB-275" value="" style="endArrow=classic;html=1;rounded=0;fontColor=#000000;exitX=0.5;exitY=0;exitDx=0;exitDy=0;entryX=0.894;entryY=1.092;entryDx=0;entryDy=0;entryPerimeter=0;" parent="1" source="41apcGKAr85ElvL8D0TB-274" target="41apcGKAr85ElvL8D0TB-258" edge="1">
          <mxGeometry width="50" height="50" relative="1" as="geometry">
            <mxPoint x="360" y="1230" as="sourcePoint" />
            <mxPoint x="358.8000000000002" y="1189.6799999999998" as="targetPoint" />
          </mxGeometry>
        </mxCell>
        <mxCell id="41apcGKAr85ElvL8D0TB-276" value="单向队列" style="text;html=1;align=center;verticalAlign=middle;resizable=0;points=[];autosize=1;strokeColor=none;fillColor=none;fontColor=#000000;fontSize=40;fontFamily=Helvetica;fontStyle=2;" parent="1" vertex="1">
          <mxGeometry x="35" y="50" width="180" height="50" as="geometry" />
        </mxCell>
        <mxCell id="41apcGKAr85ElvL8D0TB-278" value="&lt;div style=&quot;font-size: 15px&quot;&gt;&lt;font style=&quot;font-size: 15px&quot;&gt;单向队列 ：队列是只允许在一端进行插入操作,在另外一端进行删除操作的线性表，队列不允许在中间部位进行&lt;br&gt;&lt;div style=&quot;text-align: left&quot;&gt;&lt;font&gt;&amp;nbsp; &amp;nbsp; &amp;nbsp; &amp;nbsp; &amp;nbsp; &amp;nbsp; &amp;nbsp; &amp;nbsp; &amp;nbsp; &amp;nbsp;操作，&lt;/font&gt;&lt;span style=&quot;text-align: left&quot;&gt;&amp;nbsp;先进先出 (First In First Out)&lt;/span&gt;&lt;/div&gt;&lt;/font&gt;&lt;/div&gt;" style="text;html=1;align=center;verticalAlign=middle;resizable=0;points=[];autosize=1;strokeColor=none;fillColor=none;fontSize=40;fontFamily=Helvetica;fontColor=#000000;" parent="1" vertex="1">
          <mxGeometry x="50" y="100" width="740" height="100" as="geometry" />
        </mxCell>
      </root>
    </mxGraphModel>
  </diagram>
</mxfile>
